<svg width="32" height="32" viewBox="0 0 32 32" fill="none" xmlns="http://www.w3.org/2000/svg">
<mask id="path-1-inside-1" fill="white">
<path fill-rule="evenodd" clip-rule="evenodd" d="M32 0H0V32H32V0ZM31 31V16L16 31H31Z"/>
</mask>
<path fill-rule="evenodd" clip-rule="evenodd" d="M32 0H0V32H32V0ZM31 31V16L16 31H31Z" fill="#F3F3F3"/>
<path d="M0 0V-1H-1V0H0ZM32 0H33V-1H32V0ZM0 32H-1V33H0V32ZM32 32V33H33V32H32ZM31 16H32V13.5858L30.2929 15.2929L31 16ZM31 31V32H32V31H31ZM16 31L15.2929 30.2929L13.5858 32H16V31ZM0 1H32V-1H0V1ZM1 32V0H-1V32H1ZM32 31H0V33H32V31ZM31 0V32H33V0H31ZM30 16V31H32V16H30ZM16.7071 31.7071L31.7071 16.7071L30.2929 15.2929L15.2929 30.2929L16.7071 31.7071ZM31 30H16V32H31V30Z" fill="black" mask="url(#path-1-inside-1)"/>
</svg>
